<svg width="56" height="56" viewBox="0 0 56 56" fill="none" xmlns="http://www.w3.org/2000/svg">
  <g id="Icon/Exit">
    <g stroke="rgb(255, 255, 255)" fill="rgb(255, 255, 255)" id="Group">
      <path id="Figure" fill-rule="evenodd" clip-rule="evenodd"
        d="M 12 8 V 47 H 44 V 8 H 12 Z M 10 4 C 8.9 4 8 4.9 8 6 V 49 C 8 50.1 8.9 51 10 51 H 46 C 47.1 51 48 50.1 48 49 V 6 C 48 4.9 47.1 4 46 4 H 10 Z"
        fill="black" />
      <path id="Figure_2" fill-rule="evenodd" clip-rule="evenodd"
        d="M 31.7 55 C 32.9 55.2 34 54.2 34 53 L 34 2 C 34 0.8 32.9 -0.2 31.7 0 L 9.7 3.4 C 8.7 3.5 8 4.4 8 5.4 L 8 49.6 C 8 50.6 8.7 51.5 9.7 51.6 L 31.7 55 Z M 28 29.5 C 29.1 29.5 30 28.6 30 27.5 C 30 26.4 29.1 25.5 28 25.5 C 26.9 25.5 26 26.4 26 27.5 C 26 28.6 26.9 29.5 28 29.5 Z"
        fill="black" />
    </g>
  </g>
</svg>